# xmcd CD database file
#
# Track frame offsets:
#	150
#	12284
#	38923
#	55370
#	71493
#	89996
#	113585
#	122053
#	142397
#	157758
#	168858
#	182911
#	192369
#	207487
#	225530
#	249714
#
# Disc length: 3510 seconds
#
# Revision: 0
# Processed by: cddbd v1.5.1PL0 Copyright (c) Steve Scherf et al.
# Submitted via: CDex 1.51
#
DISCID=e80db410
DTITLE=John Etheridge - I Didn't Know
DYEAR=2004
DGENRE=Jazz
TTITLE0=Guitar Makossa
TTITLE1=God bless the child
TTITLE2=I'll take Les
TTITLE3=Now's the time
TTITLE4=Motherless child
TTITLE5=Mercy, mercy, mercy
TTITLE6=Lullaby of Birdland
TTITLE7=I didn't know
TTITLE8=My romance
TTITLE9=Outline
TTITLE10=Come sunday
TTITLE11=Can't help lovin' dat man
TTITLE12=Strange comforts
TTITLE13=With the wind
TTITLE14=Goodbye porkpie hat
TTITLE15=Swing low sweet chariot
EXTD=YEAR: 2004
EXTT0=
EXTT1=
EXTT2=
EXTT3=
EXTT4=
EXTT5=
EXTT6=
EXTT7=
EXTT8=
EXTT9=
EXTT10=
EXTT11=
EXTT12=
EXTT13=
EXTT14=
EXTT15=
PLAYORDER=
